<mxfile host="app.diagrams.net" modified="2024-06-29T16:24:36.475Z" agent="Mozilla/5.0 (Windows NT 10.0; Win64; x64; rv:127.0) Gecko/20100101 Firefox/127.0" version="24.6.2" etag="ENot8BeK7x4QlH2MbE9K" type="github">
  <diagram name="Page-1" id="uD9CR95Owh3mPlHx36SV">
    <mxGraphModel>
      <root>
        <mxCell id="0" />
        <mxCell id="1" parent="0" />
      </root>
    </mxGraphModel>
  </diagram>
</mxfile>
